<svg width="679" height="500" viewBox="0 0 679 500" fill="none" xmlns="http://www.w3.org/2000/svg">
<g filter="url(#filter0_f_52_221)">
<path d="M491.412 3.81812C452.397 -51.5704 330.377 43.5646 251.833 73.0599C173.288 102.555 143.056 297.504 182.071 352.893C221.085 408.281 401.04 128.013 479.585 98.518C558.129 69.0227 530.426 59.2067 491.412 3.81812Z" fill="#F8D825" fill-opacity="0.24"/>
</g>
<g filter="url(#filter1_f_52_221)">
<path d="M524.86 157.034C476.408 107.439 394.319 109.058 341.509 160.65C288.699 212.242 285.166 294.271 333.618 343.867C382.07 393.462 407.012 272.165 459.822 220.572C512.632 168.98 573.312 206.63 524.86 157.034Z" fill="#97E280"/>
</g>
<defs>
<filter id="filter0_f_52_221" x="28.7662" y="-149.503" width="637.332" height="645.939" filterUnits="userSpaceOnUse" color-interpolation-filters="sRGB">
<feFlood flood-opacity="0" result="BackgroundImageFix"/>
<feBlend mode="normal" in="SourceGraphic" in2="BackgroundImageFix" result="shape"/>
<feGaussianBlur stdDeviation="68.1589" result="effect1_foregroundBlur_52_221"/>
</filter>
<filter id="filter1_f_52_221" x="163.152" y="-15.4466" width="515.744" height="507.304" filterUnits="userSpaceOnUse" color-interpolation-filters="sRGB">
<feFlood flood-opacity="0" result="BackgroundImageFix"/>
<feBlend mode="normal" in="SourceGraphic" in2="BackgroundImageFix" result="shape"/>
<feGaussianBlur stdDeviation="68.1589" result="effect1_foregroundBlur_52_221"/>
</filter>
</defs>
</svg>
