<svg width="306" height="306" viewBox="0 0 306 306" fill="none" xmlns="http://www.w3.org/2000/svg">
<rect x="2" y="2" width="302.02" height="302.02" rx="4.87129" stroke="black" stroke-opacity="0.58" stroke-width="2.43564"/>
<path d="M261.804 201.845C255.34 205.882 246.81 203.911 242.749 197.448L180.034 97.0801C175.998 90.6165 177.968 82.0865 184.432 78.0255C190.895 73.9888 199.426 75.9592 203.486 82.4228L266.201 182.79C270.238 189.254 268.267 197.784 261.804 201.845Z" fill="url(#paint0_linear_50_65)"/>
<path d="M212.426 201.845C205.962 205.882 197.432 203.911 193.371 197.448L130.656 97.0801C126.62 90.6165 128.59 82.0865 135.054 78.0255C141.517 73.9888 150.048 75.9592 154.108 82.4228L216.823 182.79C220.86 189.254 218.889 197.784 212.426 201.845Z" fill="url(#paint1_linear_50_65)"/>
<path d="M251.832 103.568C259.473 103.568 265.649 97.3689 265.649 89.7517C265.649 82.1108 259.449 75.9353 251.832 75.9353H216.174L233.45 103.568H251.832Z" fill="url(#paint2_linear_50_65)"/>
<path d="M163.047 201.845C156.583 205.882 148.053 203.911 143.992 197.448L81.2776 97.0801C77.2408 90.5926 79.2111 82.0623 85.6748 78.0255C92.1385 73.9888 100.669 75.9592 104.729 82.4228L167.444 182.79C171.505 189.254 169.535 197.784 163.047 201.845Z" fill="url(#paint3_linear_50_65)"/>
<path d="M165.644 71.8026C173.261 71.8026 179.436 65.6274 179.436 58.0102C179.436 50.3928 173.261 44.2177 165.644 44.2177C158.026 44.2177 151.852 50.3928 151.852 58.0102C151.852 65.6274 158.026 71.8026 165.644 71.8026Z" fill="#F0B7CD"/>
<mask id="mask0_50_65" style="mask-type:luminance" maskUnits="userSpaceOnUse" x="37" y="127" width="157" height="135">
<path d="M193.047 127.719H37.7227V261.62H193.047V127.719Z" fill="white"/>
</mask>
<g mask="url(#mask0_50_65)">
<path d="M172.979 261.62C183.986 261.62 192.909 252.69 192.909 241.674C192.909 230.659 183.986 221.729 172.979 221.729C161.973 221.729 153.05 230.659 153.05 241.674C153.05 252.69 161.973 261.62 172.979 261.62Z" fill="#3F6C51"/>
<path d="M128.14 229.408H113.394C107.955 229.408 103.547 224.996 103.547 219.553C103.547 214.082 108.02 209.605 113.487 209.605H176.938C185.058 209.605 192.394 202.989 192.881 194.879C193.429 185.766 186.209 178.205 177.222 178.205H152.551C147.287 178.205 143.016 173.931 143.016 168.662C143.016 163.394 147.287 159.119 152.551 159.119H157.009C165.128 159.119 172.465 152.503 172.952 144.394C173.499 135.281 166.276 127.719 157.292 127.719H81.1551C73.0356 127.719 65.6988 134.335 65.2121 142.445C64.6646 151.558 71.8838 159.119 80.8712 159.119H111.617C116.882 159.119 121.152 163.394 121.152 168.662C121.152 173.931 116.882 178.205 111.617 178.205H53.556C45.4366 178.205 38.0999 184.821 37.6132 192.931C37.0657 202.043 44.2848 209.605 53.2722 209.605H69.6856C75.1526 209.605 79.626 214.082 79.626 219.553C79.626 224.996 75.2176 229.408 69.7789 229.408H66.5911V229.424C57.8389 229.786 50.9402 237.319 51.6053 246.306C52.1974 254.294 59.518 260.808 67.5239 260.808H127.852C135.972 260.808 143.308 254.192 143.795 246.082C144.343 236.97 137.123 229.408 128.136 229.408H128.14Z" fill="#3F6C51"/>
</g>
<defs>
<linearGradient id="paint0_linear_50_65" x1="202.467" y1="81.3173" x2="242.772" y2="195.726" gradientUnits="userSpaceOnUse">
<stop offset="0.045252" stop-color="#F0B7CD"/>
<stop offset="0.3578" stop-color="#EDB6D1"/>
<stop offset="0.6747" stop-color="#E6B2DD"/>
<stop offset="0.9928" stop-color="#D9ACF1"/>
<stop offset="1" stop-color="#D9ACF2"/>
</linearGradient>
<linearGradient id="paint1_linear_50_65" x1="153.09" y1="81.3206" x2="193.396" y2="195.729" gradientUnits="userSpaceOnUse">
<stop offset="0.045252" stop-color="#F0B7CD"/>
<stop offset="0.3578" stop-color="#EDB6D1"/>
<stop offset="0.6747" stop-color="#E6B2DD"/>
<stop offset="0.9928" stop-color="#D9ACF1"/>
<stop offset="1" stop-color="#D9ACF2"/>
</linearGradient>
<linearGradient id="paint2_linear_50_65" x1="234.194" y1="67.2809" x2="252.251" y2="104.881" gradientUnits="userSpaceOnUse">
<stop offset="0.233" stop-color="#F0B7CD"/>
<stop offset="0.9602" stop-color="#EFB7CE"/>
</linearGradient>
<linearGradient id="paint3_linear_50_65" x1="103.717" y1="81.3221" x2="144.023" y2="195.73" gradientUnits="userSpaceOnUse">
<stop offset="0.045252" stop-color="#F0B7CD"/>
<stop offset="0.3578" stop-color="#EDB6D1"/>
<stop offset="0.6747" stop-color="#E6B2DD"/>
<stop offset="0.9928" stop-color="#D9ACF1"/>
<stop offset="1" stop-color="#D9ACF2"/>
</linearGradient>
</defs>
</svg>
