<svg width="232" height="218" viewBox="0 0 232 218" fill="none" xmlns="http://www.w3.org/2000/svg">
<path d="M224.804 157.845C218.34 161.882 209.81 159.911 205.749 153.448L143.035 53.0801C138.998 46.6165 140.968 38.0865 147.432 34.0255C153.895 29.9888 162.426 31.9592 166.486 38.4228L229.201 138.79C233.238 145.254 231.267 153.784 224.804 157.845Z" fill="url(#paint0_linear_35_509)"/>
<path d="M175.425 157.845C168.961 161.882 160.431 159.911 156.37 153.448L93.6557 53.0801C89.619 46.6165 91.5893 38.0865 98.053 34.0255C104.517 29.9888 113.047 31.9592 117.108 38.4228L179.822 138.79C183.859 145.254 181.889 153.784 175.425 157.845Z" fill="url(#paint1_linear_35_509)"/>
<path d="M214.832 59.5684C222.474 59.5684 228.649 53.3689 228.649 45.7517C228.649 38.1108 222.449 31.9353 214.832 31.9353H179.174L196.451 59.5684H214.832Z" fill="url(#paint2_linear_35_509)"/>
<path d="M126.047 157.845C119.583 161.882 111.053 159.911 106.992 153.448L44.2774 53.0801C40.2406 46.5926 42.2109 38.0623 48.6746 34.0255C55.1383 29.9888 63.6684 31.9592 67.7292 38.4228L130.444 138.79C134.504 145.254 132.534 153.784 126.047 157.845Z" fill="url(#paint3_linear_35_509)"/>
<path d="M128.643 27.8026C136.26 27.8026 142.435 21.6274 142.435 14.0102C142.435 6.39281 136.26 0.217743 128.643 0.217743C121.026 0.217743 114.851 6.39281 114.851 14.0102C114.851 21.6274 121.026 27.8026 128.643 27.8026Z" fill="#F0B7CD"/>
<mask id="mask0_35_509" style="mask-type:luminance" maskUnits="userSpaceOnUse" x="0" y="83" width="157" height="135">
<path d="M156.047 83.7194H0.722656V217.62H156.047V83.7194Z" fill="white"/>
</mask>
<g mask="url(#mask0_35_509)">
<path d="M135.98 217.62C146.987 217.62 155.91 208.69 155.91 197.674C155.91 186.659 146.987 177.729 135.98 177.729C124.974 177.729 116.051 186.659 116.051 197.674C116.051 208.69 124.974 217.62 135.98 217.62Z" fill="#3F6C51"/>
<path d="M91.1407 185.408H76.3942C70.9555 185.408 66.547 180.996 66.547 175.553C66.547 170.082 71.0204 165.605 76.4874 165.605H139.938C148.059 165.605 155.395 158.989 155.881 150.879C156.429 141.766 149.209 134.205 140.222 134.205H115.552C110.288 134.205 106.017 129.931 106.017 124.662C106.017 119.394 110.288 115.119 115.552 115.119H120.009C128.129 115.119 135.465 108.503 135.953 100.394C136.499 91.2813 129.277 83.7194 120.293 83.7194H44.1556C36.0361 83.7194 28.6993 90.3355 28.2126 98.4453C27.6651 107.558 34.8843 115.119 43.8717 115.119H74.6177C79.882 115.119 84.1527 119.394 84.1527 124.662C84.1527 129.931 79.882 134.205 74.6177 134.205H16.5565C8.43707 134.205 1.10037 140.821 0.61369 148.931C0.066167 158.043 7.28525 165.605 16.2727 165.605H32.6861C38.1531 165.605 42.6265 170.082 42.6265 175.553C42.6265 180.996 38.2181 185.408 32.7794 185.408H29.5916V185.424C20.8394 185.786 13.9407 193.319 14.6058 202.306C15.1979 210.294 22.5185 216.808 30.5244 216.808H90.8527C98.9721 216.808 106.309 210.192 106.796 202.082C107.343 192.97 100.124 185.408 91.1367 185.408H91.1407Z" fill="#3F6C51"/>
</g>
<defs>
<linearGradient id="paint0_linear_35_509" x1="165.467" y1="37.3173" x2="205.773" y2="151.726" gradientUnits="userSpaceOnUse">
<stop offset="0.045252" stop-color="#F0B7CD"/>
<stop offset="0.3578" stop-color="#EDB6D1"/>
<stop offset="0.6747" stop-color="#E6B2DD"/>
<stop offset="0.9928" stop-color="#D9ACF1"/>
<stop offset="1" stop-color="#D9ACF2"/>
</linearGradient>
<linearGradient id="paint1_linear_35_509" x1="116.089" y1="37.3206" x2="156.395" y2="151.729" gradientUnits="userSpaceOnUse">
<stop offset="0.045252" stop-color="#F0B7CD"/>
<stop offset="0.3578" stop-color="#EDB6D1"/>
<stop offset="0.6747" stop-color="#E6B2DD"/>
<stop offset="0.9928" stop-color="#D9ACF1"/>
<stop offset="1" stop-color="#D9ACF2"/>
</linearGradient>
<linearGradient id="paint2_linear_35_509" x1="197.195" y1="23.2809" x2="215.252" y2="60.8809" gradientUnits="userSpaceOnUse">
<stop offset="0.233" stop-color="#F0B7CD"/>
<stop offset="0.9602" stop-color="#EFB7CE"/>
</linearGradient>
<linearGradient id="paint3_linear_35_509" x1="66.7172" y1="37.3221" x2="107.023" y2="151.73" gradientUnits="userSpaceOnUse">
<stop offset="0.045252" stop-color="#F0B7CD"/>
<stop offset="0.3578" stop-color="#EDB6D1"/>
<stop offset="0.6747" stop-color="#E6B2DD"/>
<stop offset="0.9928" stop-color="#D9ACF1"/>
<stop offset="1" stop-color="#D9ACF2"/>
</linearGradient>
</defs>
</svg>
