<svg width="54" height="46" viewBox="0 0 54 46" fill="none" xmlns="http://www.w3.org/2000/svg">
<mask id="mask0_35_402" style="mask-type:luminance" maskUnits="userSpaceOnUse" x="0" y="0" width="54" height="46">
<path d="M53.3533 0.281738H0.646973V45.7182H53.3533V0.281738Z" fill="white"/>
</mask>
<g mask="url(#mask0_35_402)">
<path d="M46.5439 45.7182C50.279 45.7182 53.3067 42.688 53.3067 38.9501C53.3067 35.2121 50.279 32.1819 46.5439 32.1819C42.809 32.1819 39.7812 35.2121 39.7812 38.9501C39.7812 42.688 42.809 45.7182 46.5439 45.7182Z" fill="#3F6C51"/>
<path d="M31.3285 34.7878H26.3246C24.4791 34.7878 22.9832 33.2906 22.9832 31.4437C22.9832 29.587 24.5011 28.0678 26.3562 28.0678H47.8869C50.6425 28.0678 53.1319 25.8228 53.2969 23.0709C53.4828 19.9788 51.033 17.4129 47.9834 17.4129H39.612C37.8256 17.4129 36.3765 15.9625 36.3765 14.1748C36.3765 12.387 37.8256 10.9367 39.612 10.9367H41.1244C43.8797 10.9367 46.3691 8.69168 46.5345 5.93977C46.72 2.84771 44.2692 0.281738 41.2208 0.281738H15.3851C12.6299 0.281738 10.1403 2.52677 9.97515 5.27868C9.78935 8.37073 12.239 10.9367 15.2887 10.9367H25.7218C27.5081 10.9367 28.9573 12.387 28.9573 14.1748C28.9573 15.9625 27.5081 17.4129 25.7218 17.4129H6.01989C3.26472 17.4129 0.775158 19.6579 0.610012 22.4098C0.424221 25.5019 2.87387 28.0678 5.92357 28.0678H11.4931C13.3483 28.0678 14.8662 29.587 14.8662 31.4437C14.8662 33.2906 13.3703 34.7878 11.5248 34.7878H10.4431V34.7933C7.47321 34.9159 5.13227 37.4722 5.35796 40.5216C5.55886 43.2322 8.04296 45.4428 10.7596 45.4428H31.2308C33.986 45.4428 36.4756 43.1977 36.6407 40.4458C36.8265 37.3537 34.3768 34.7878 31.3272 34.7878H31.3285Z" fill="#3F6C51"/>
</g>
</svg>
