<svg width="105" height="105" viewBox="0 0 105 105" fill="none" xmlns="http://www.w3.org/2000/svg">
<path fill-rule="evenodd" clip-rule="evenodd" d="M20.1977 84.0687L17.813 91.1145H87.187L84.8023 84.0687C84.2242 82.2621 83.1763 80.8168 81.6588 79.7328C80.1412 78.6489 78.443 78.1069 76.5641 78.1069H28.4359C26.557 78.1069 24.8588 78.6489 23.3412 79.7328C21.8237 80.8168 20.7758 82.2621 20.1977 84.0687Z" fill="#1E3C2A"/>
<path fill-rule="evenodd" clip-rule="evenodd" d="M33.7473 69.4351L24.3168 30.4122L52.5 4.39697L80.6832 30.4122L71.2527 69.4351H33.7473ZM64.4237 60.7634H40.5763L33.9641 33.339L48.1641 20.2229V31.713C47.1524 32.4356 46.3575 33.339 45.7794 34.4229C45.2013 35.5069 44.9122 36.6993 44.9122 38C44.9122 40.0957 45.6529 41.8843 47.1344 43.3657C48.6158 44.8471 50.4043 45.5878 52.5 45.5878C54.5957 45.5878 56.3842 44.8471 57.8657 43.3657C59.3471 41.8843 60.0878 40.0957 60.0878 38C60.0878 36.6993 59.7987 35.5069 59.2206 34.4229C58.6425 33.339 57.8476 32.4356 56.8359 31.713V20.2229L71.0359 33.339L64.4237 60.7634Z" fill="#3F6C51"/>
</svg>
