<svg width="105" height="105" viewBox="0 0 105 105" fill="none" xmlns="http://www.w3.org/2000/svg">
<path fill-rule="evenodd" clip-rule="evenodd" d="M20.1977 84.0078L17.813 91.0536H87.187L84.8023 84.0078C84.2242 82.2012 83.1763 80.7559 81.6588 79.6719C80.1412 78.588 78.443 78.046 76.5641 78.046H28.4359C26.557 78.046 24.8588 78.588 23.3412 79.6719C21.8237 80.7559 20.7758 82.2012 20.1977 84.0078Z" fill="#1E3C2A"/>
<path fill-rule="evenodd" clip-rule="evenodd" d="M52.5 69.3742C45.2735 69.3742 39.1311 66.863 34.0725 61.8406C29.014 56.8182 26.4847 50.5854 26.4847 43.1422C26.4847 37.7946 28.0746 32.7722 31.2542 28.075C34.4339 23.3778 37.9206 19.2587 41.7145 15.7177C45.5084 12.1768 48.9771 9.39458 52.1206 7.37117L56.8359 4.33606C56.8359 8.45514 57.5766 11.9238 59.058 14.7422C60.5395 17.5605 63.3397 20.5595 67.4588 23.7391C71.7224 27.0633 74.6311 30.1526 76.1847 33.0071C77.7384 35.8615 78.5153 39.2399 78.5153 43.1422C78.5153 50.5854 75.986 56.8182 70.9275 61.8406C65.869 66.863 59.7265 69.3742 52.5 69.3742ZM64.7489 55.662C61.3524 59.0223 57.2695 60.7025 52.5 60.7025C47.7305 60.7025 43.6476 59.0223 40.2512 55.662C36.8547 52.3017 35.1565 48.1284 35.1565 43.1422C35.1565 39.4567 36.4392 35.6266 39.0046 31.6521C41.57 27.6775 45.7071 23.3417 51.416 18.6445C52.6445 20.9569 54.144 23.0707 55.9145 24.9857C57.685 26.9007 59.6903 28.6892 61.9305 30.3513C64.7489 32.5193 66.7723 34.5607 68.0008 36.4758C69.2293 38.3908 69.8435 40.6129 69.8435 43.1422C69.8435 48.1284 68.1453 52.3017 64.7489 55.662Z" fill="#3F6C51"/>
</svg>
