<svg xmlns="http://www.w3.org/2000/svg" width="158" height="33" viewBox="0 0 158 33" fill="none">
  <g clip-path="url(#clip0_35_629)">
    <path d="M156.198 3.3204C157.399 3.79142 158 4.58038 158 5.68727V26.4593C158 27.1423 157.752 27.7193 157.258 28.1903C156.787 28.6848 156.21 28.9321 155.527 28.9321C154.844 28.9321 154.256 28.6848 153.761 28.1903C153.29 27.7193 153.054 27.1423 153.054 26.4593V14.4129L146.661 24.8696C146.661 24.8931 146.649 24.9049 146.626 24.9049C146.602 24.952 146.578 24.9991 146.555 25.0462C146.531 25.0698 146.507 25.0933 146.484 25.1168C146.461 25.164 146.425 25.1993 146.378 25.2229C146.355 25.2699 146.331 25.3053 146.308 25.3288C146.284 25.3524 146.26 25.3759 146.237 25.3995C146.19 25.423 146.143 25.4584 146.096 25.5055C146.072 25.529 146.048 25.5408 146.025 25.5408C145.978 25.5879 145.931 25.6232 145.884 25.6468C145.884 25.6703 145.872 25.6821 145.848 25.6821C145.801 25.7056 145.754 25.7292 145.707 25.7527C145.66 25.7763 145.624 25.7999 145.601 25.8234C145.577 25.8234 145.542 25.8352 145.495 25.8587C145.448 25.8823 145.412 25.8941 145.389 25.8941C145.366 25.9176 145.33 25.9294 145.283 25.9294C145.236 25.9529 145.189 25.9647 145.142 25.9647C145.118 25.9647 145.107 25.9765 145.107 26C145.036 26 144.977 26 144.93 26C144.906 26.0236 144.883 26.0354 144.859 26.0354C144.812 26.0354 144.753 26.0354 144.683 26.0354C144.635 26.0354 144.6 26.0354 144.576 26.0354C144.529 26.0354 144.494 26.0354 144.47 26.0354C144.4 26.0354 144.341 26.0354 144.294 26.0354C144.271 26.0354 144.247 26.0236 144.224 26C144.153 26 144.094 25.9882 144.047 25.9647C144.023 25.9647 144 25.9647 143.976 25.9647C143.929 25.9647 143.882 25.9529 143.835 25.9294C143.811 25.9294 143.788 25.9176 143.764 25.8941C143.717 25.8941 143.682 25.8823 143.658 25.8587C143.611 25.8352 143.564 25.8234 143.517 25.8234C143.493 25.7999 143.47 25.7763 143.447 25.7527C143.399 25.7292 143.352 25.7056 143.305 25.6821C143.305 25.6821 143.293 25.6821 143.269 25.6821C143.269 25.6586 143.258 25.6468 143.234 25.6468C143.187 25.6232 143.14 25.5879 143.093 25.5408C143.07 25.5408 143.046 25.529 143.022 25.5055C142.999 25.4584 142.964 25.423 142.916 25.3995C142.893 25.3759 142.869 25.3524 142.846 25.3288C142.799 25.3053 142.763 25.2699 142.74 25.2229C142.716 25.1993 142.693 25.164 142.669 25.1168C142.646 25.0933 142.622 25.0698 142.598 25.0462C142.575 24.9991 142.54 24.952 142.492 24.9049C142.492 24.9049 142.481 24.8931 142.458 24.8696L136.064 14.4129V26.4593C136.064 27.1423 135.816 27.7193 135.322 28.1903C134.851 28.6848 134.286 28.9321 133.627 28.9321C132.943 28.9321 132.354 28.6848 131.86 28.1903C131.389 27.7193 131.153 27.1423 131.153 26.4593V5.68727C131.153 4.58038 131.754 3.79142 132.955 3.3204C134.109 3.06133 135.027 3.42638 135.711 4.41552L144.576 18.8641L153.443 4.41552C154.102 3.42638 155.021 3.06133 156.198 3.3204Z" fill="white"/>
    <path d="M124.979 3.21436C125.662 3.21436 126.239 3.46164 126.709 3.95622C127.204 4.42723 127.452 5.00424 127.452 5.68721V16.6738C127.452 18.9111 126.898 20.9601 125.792 22.8206C124.684 24.6811 123.201 26.1648 121.34 27.2717C119.48 28.3786 117.42 28.9321 115.159 28.9321C112.922 28.9321 110.873 28.3786 109.013 27.2717C107.152 26.1648 105.669 24.6811 104.562 22.8206C103.455 20.9601 102.901 18.9111 102.901 16.6738V5.68721C102.901 5.00424 103.137 4.42723 103.608 3.95622C104.102 3.46164 104.691 3.21436 105.374 3.21436C106.033 3.21436 106.599 3.46164 107.07 3.95622C107.564 4.42723 107.812 5.00424 107.812 5.68721V16.6738C107.812 18.6992 108.53 20.4302 109.966 21.8668C111.403 23.3034 113.134 24.0217 115.159 24.0217C117.208 24.0217 118.95 23.3034 120.387 21.8668C121.823 20.4302 122.541 18.6992 122.541 16.6738V5.68721C122.541 5.00424 122.777 4.42723 123.248 3.95622C123.719 3.46164 124.296 3.21436 124.979 3.21436Z" fill="white"/>
    <path d="M87.0619 3.21436C90.1699 3.21436 92.819 4.32125 95.0091 6.53505C97.2231 8.72527 98.3298 11.3748 98.3298 14.4835V20.4537V26.4592C98.3298 27.1422 98.0822 27.7192 97.5877 28.1902C97.1171 28.6848 96.5521 28.9321 95.8928 28.9321C95.2095 28.9321 94.6206 28.6848 94.126 28.1902C93.6555 27.7192 93.4195 27.1422 93.4195 26.4592V22.9266H79.008V26.4592C79.008 27.1422 78.7604 27.7192 78.2659 28.1902C77.7953 28.6848 77.2296 28.9321 76.5703 28.9321C75.8876 28.9321 75.2987 28.6848 74.8042 28.1902C74.333 27.7192 74.0977 27.1422 74.0977 26.4592V14.4835C74.0977 11.3748 75.1927 8.72527 77.3828 6.53505C79.5962 4.32125 82.2576 3.21436 85.3663 3.21436H87.0619ZM79.008 18.0161H93.4195V14.4835C93.4195 12.7407 92.7957 11.2453 91.5474 9.99706C90.3231 8.74886 88.8279 8.12473 87.0619 8.12473H85.3663C83.6235 8.12473 82.1283 8.74886 80.88 9.99706C79.6318 11.2453 79.008 12.7407 79.008 14.4835V18.0161Z" fill="white"/>
    <path d="M50.0781 28.9321C49.3952 28.9321 48.8065 28.6848 48.312 28.1902C47.841 27.7192 47.6055 27.1422 47.6055 26.4592V5.68721C47.6055 5.00424 47.841 4.42723 48.312 3.95622C48.8065 3.46164 49.3952 3.21436 50.0781 3.21436C50.7375 3.21436 51.3027 3.46164 51.7737 3.95622C52.2682 4.42723 52.5154 5.00424 52.5154 5.68721V24.0217H67.634C68.3169 24.0217 68.8937 24.269 69.365 24.7636C69.8595 25.2346 70.1064 25.7998 70.1064 26.4592C70.1064 27.1422 69.8595 27.7192 69.365 28.1902C68.8937 28.6848 68.3169 28.9321 67.634 28.9321H50.0781Z" fill="white"/>
    <path d="M27.2225 9.88321C27.2225 8.53809 28.2947 7.44556 29.6317 7.44556L31.8706 7.44529C33.6156 7.13415 34.9515 5.59243 34.9515 3.75158C34.9515 1.68799 33.2738 0 31.2227 0L10.9042 0.000319365C8.85313 0.000319365 7.17539 1.68831 7.17539 3.7519C7.17539 5.74998 8.74896 7.39645 10.7099 7.49912L18.8002 7.49905C20.1372 7.49905 21.2035 8.60649 21.2035 9.95161C21.2035 11.2968 20.1372 12.3906 18.8002 12.3906H3.02666C1.30877 12.7235 0 14.2521 0 16.0744C0 17.8869 1.30466 19.4919 3.00952 19.8358H8.12954C9.46653 19.8358 10.5493 20.8534 10.5493 22.1986C10.5493 23.5437 9.47637 24.6237 8.13939 24.6237H6.88387C5.0238 24.8301 3.55671 26.471 3.55671 28.3959C3.55671 30.4595 5.23444 32.1475 7.28551 32.1475H23.6316C25.6827 32.1475 27.3604 30.4595 27.3604 28.3959C27.3604 26.3323 25.6827 24.6237 23.6316 24.6237H19.5619C18.2249 24.6237 17.1073 23.5437 17.1073 22.1986C17.1073 20.8534 18.2123 19.8358 19.5493 19.8358H36.6836C38.3874 19.4919 39.671 17.8858 39.671 16.0744C39.671 14.12 38.1647 12.5019 36.2624 12.337H29.6306C28.2936 12.337 27.2214 11.2284 27.2214 9.88321H27.2225Z" fill="white"/>
    <path d="M34.8826 22.5713C32.2489 22.5713 30.0947 24.7255 30.0947 27.3592C30.0947 29.9929 32.2489 32.147 34.8826 32.147C37.5163 32.147 39.6705 29.9929 39.6705 27.3592C39.6705 24.7255 37.5163 22.5713 34.8826 22.5713Z" fill="white"/>
  </g>
  <defs>
    <clipPath id="clip0_35_629">
      <rect width="158" height="32.1472" fill="white"/>
    </clipPath>
  </defs>
</svg>